<?xml version="1.0" encoding="UTF-8"?>
<svg version="1.1" xmlns="http://www.w3.org/2000/svg" width="833" height="181">
<path d="M0 0 C1.03511719 0.17821289 2.07023437 0.35642578 3.13671875 0.54003906 C23.10402091 4.14219888 49.04898608 9.73149612 61.71685791 27.27137756 C64.52670143 32.33234805 64.1968438 37.52765478 64.17089844 43.18530273 C64.18123611 44.35675339 64.19157379 45.52820404 64.20222473 46.7351532 C64.23163632 50.5931073 64.23315164 54.45053637 64.234375 58.30859375 C64.24935774 60.98904602 64.26589089 63.66944383 64.28448486 66.34986877 C64.32496943 72.6749252 64.3453677 78.99987871 64.35845876 85.32504469 C64.3743545 92.52951505 64.41278083 99.73381094 64.45305204 106.93817985 C64.53534749 121.75038295 64.5895042 136.562609 64.625 151.375 C65.615 151.705 66.605 152.035 67.625 152.375 C67.62407821 151.80092439 67.62315641 151.22684877 67.62220669 150.63537693 C67.6000783 136.63732106 67.58355284 122.63926783 67.57318783 108.64119816 C67.56804157 101.87171359 67.56103084 95.10224073 67.54956055 88.33276367 C67.53849158 81.79699688 67.53271148 75.26123768 67.53012276 68.72546196 C67.52827844 66.23487596 67.52467698 63.74429061 67.51926994 61.25370979 C67.51198641 57.7590505 67.51101215 54.26444108 67.51147461 50.76977539 C67.50787933 49.74549942 67.50428406 48.72122345 67.50057983 47.66590881 C67.5251098 30.47876089 67.5251098 30.47876089 71.6875 26.25 C72.32945312 25.59773438 72.97140625 24.94546875 73.6328125 24.2734375 C74.29023438 23.64695312 74.94765625 23.02046875 75.625 22.375 C76.17929688 21.78976563 76.73359375 21.20453125 77.3046875 20.6015625 C95.19801175 3.02634179 125.58357329 -0.16975085 149.34765625 -1.7421875 C153.97472281 -1.57673816 157.37257851 -0.67432611 160.9375 2.3125 C163.60431495 5.5719405 163.75280656 8.30269062 163.77217102 12.36494446 C163.78290398 13.91053543 163.78290398 13.91053543 163.79385376 15.48735046 C163.79654266 16.61727921 163.79923157 17.74720795 163.80200195 18.91137695 C163.80857315 20.10186646 163.81514435 21.29235596 163.82191467 22.5189209 C163.84166056 26.46703449 163.85331428 30.41513479 163.86328125 34.36328125 C163.86732964 35.72365018 163.87144659 37.08401891 163.87563133 38.44438744 C163.89467706 44.83559938 163.90890974 51.22679981 163.9172433 57.61803466 C163.92701577 64.99061606 163.95333777 72.36289723 163.99374419 79.73537284 C164.02392086 85.43739331 164.0387136 91.13932779 164.04202431 96.84142655 C164.04437294 100.24549227 164.05330832 103.64923702 164.07848549 107.05321693 C164.10277273 110.85253576 164.10193049 114.65106714 164.0949707 118.45043945 C164.11418579 120.13622353 164.11418579 120.13622353 164.13378906 121.85606384 C164.0927946 127.9891798 163.80701947 131.7457804 159.625 136.375 C155.60267906 138.72543449 151.12465275 138.92662243 146.5625 139.375 C145.03493074 139.54090538 143.50758525 139.70888382 141.98046875 139.87890625 C141.23587402 139.96156738 140.4912793 140.04422852 139.72412109 140.12939453 C116.73122161 142.81965469 91.09254906 148.85380015 74 165.5 C69.24728296 170.04184563 69.24728296 170.04184563 65.625 170.5 C60.74560481 169.89736553 57.81552445 166.1693258 54.4453125 162.88671875 C36.51708569 146.92016773 10.29430211 141.46116479 -12.8671875 138.8515625 C-13.58406738 138.76986816 -14.30094727 138.68817383 -15.03955078 138.60400391 C-16.99885749 138.38885175 -18.96033454 138.19373239 -20.921875 138 C-24.70785769 137.31475426 -27.19508075 136.55551606 -30.375 134.375 C-33.83275914 128.29064609 -33.80236418 122.74502176 -33.76318359 115.859375 C-33.76844055 114.71867554 -33.77369751 113.57797607 -33.77911377 112.40270996 C-33.79228517 108.64333279 -33.78358539 104.88438126 -33.7734375 101.125 C-33.77545905 98.50618407 -33.77837116 95.88736869 -33.78213501 93.26855469 C-33.78758278 87.78445856 -33.78042678 82.3004839 -33.76611328 76.81640625 C-33.74978853 70.48893372 -33.75507774 64.16175125 -33.7715925 57.83428574 C-33.78688095 51.7308342 -33.78521941 45.6275106 -33.7764473 39.52404785 C-33.77444805 36.93412231 -33.77689486 34.34418934 -33.78388596 31.75427246 C-33.79151645 28.13285803 -33.77987283 24.5119982 -33.76318359 20.890625 C-33.76925629 19.8234021 -33.77532898 18.7561792 -33.78158569 17.65661621 C-33.73154944 11.78688683 -33.21615571 7.55209751 -30.375 2.375 C-22.68948672 -4.85735802 -9.29720556 -1.60818197 0 0 Z " fill="#4D9CEF" transform="translate(57.375,6.625)"/>
<path d="M0 0 C7.03127114 5.07677444 10.89572301 9.67016036 12.3125 18.3125 C12.3125 19.6325 12.3125 20.9525 12.3125 22.3125 C6.3725 22.3125 0.4325 22.3125 -5.6875 22.3125 C-6.6775 20.3325 -7.6675 18.3525 -8.6875 16.3125 C-12.79432744 13.09363525 -16.77015238 12.03727853 -21.96484375 12.52734375 C-25.75390105 13.17215901 -28.05402365 13.67902365 -30.8125 16.4375 C-31.94000833 20.14217024 -32.4277575 23.74235799 -30.6875 27.3125 C-24.86451346 31.11837356 -17.68297791 32.2594836 -11.00585938 33.88671875 C-1.92600862 36.22385859 5.94341082 39.34021606 11.3125 47.3125 C14.43230376 54.9792518 14.72275795 64.38918876 12.4375 72.3671875 C9.1734408 79.43215774 4.43695384 84.25798436 -2.8125 87.125 C-12.68278014 90.50383034 -25.82174893 91.07272732 -35.6875 87.3125 C-43.08123061 83.62236851 -49.66700488 78.22619722 -52.6875 70.3125 C-53.27746149 66.94971953 -53.50004746 63.73350895 -53.6875 60.3125 C-47.4175 60.3125 -41.1475 60.3125 -34.6875 60.3125 C-33.6975 63.2825 -32.7075 66.2525 -31.6875 69.3125 C-26.66245436 73.01904742 -19.8456577 72.54586359 -13.9140625 71.734375 C-11.81275332 71.33623221 -9.75453763 70.85993462 -7.6875 70.3125 C-6.75130187 67.15743858 -6.5817877 64.34663498 -6.625 61.0625 C-6.63402344 60.17046875 -6.64304687 59.2784375 -6.65234375 58.359375 C-6.66394531 57.68390625 -6.67554688 57.0084375 -6.6875 56.3125 C-10.13070011 54.87221987 -13.54278572 53.73537468 -17.14453125 52.76171875 C-18.17513672 52.47490234 -19.20574219 52.18808594 -20.26757812 51.89257812 C-22.40864537 51.30135895 -24.55187596 50.71791475 -26.69726562 50.14257812 C-36.03589493 47.51845238 -44.15651341 43.98729988 -49.4375 35.5 C-52.26491507 28.26744101 -51.96772069 18.5040042 -49.1875 11.3125 C-44.77296301 3.11627923 -37.35710907 -1.05691715 -28.6875 -3.6875 C-18.91466737 -5.98968054 -8.6052259 -5.3962537 0 0 Z " fill="#0B0B0B" transform="translate(310.6875,40.6875)"/>
<path d="M0 0 C6.27 0 12.54 0 19 0 C19.33 9.9 19.66 19.8 20 30 C22.97 27.525 22.97 27.525 26 25 C33.51942246 22.24287843 40.97551075 22.35094283 48.3125 25.75 C51.78524668 27.68551475 54.36671686 30.00098309 57 33 C57.680625 33.721875 58.36125 34.44375 59.0625 35.1875 C66.02372242 45.29250029 66.1617643 56.09000933 65 68 C63.22346359 77.30316404 58.30556326 83.5189063 51.0625 89.375 C44.03946182 93.10151006 36.03297964 94.48502161 28.3125 92.20703125 C24.19472457 90.64491005 20.96529895 89.33835269 18 86 C17.67 87.98 17.34 89.96 17 92 C11.39 92 5.78 92 0 92 C0 61.64 0 31.28 0 0 Z M22 44 C17.85697747 49.72575024 17.09204088 56.12387054 18 63 C18.9434745 67.21660528 20.27755982 70.17131862 23.125 73.4375 C27.58797498 75.86302988 32.02020231 76.64753296 37.03125 75.55859375 C40.10546878 74.41878806 41.88020874 73.15572864 43.875 70.5625 C46.71438212 64.0950185 47.32931738 56.33233487 45.24609375 49.54296875 C43.51312258 45.87994342 41.76061229 42.77584469 38 41 C31.74817833 39.43704458 27.0779267 39.73094658 22 44 Z " fill="#0A0A0A" transform="translate(496,37)"/>
<path d="M0 0 C6.27 0 12.54 0 19 0 C19.33 15.51 19.66 31.02 20 47 C28.27047738 37.37208243 28.27047738 37.37208243 35.87890625 27.390625 C37 26 37 26 39 25 C40.59447464 24.91599471 42.19240545 24.89272533 43.7890625 24.90234375 C44.73007812 24.90556641 45.67109375 24.90878906 46.640625 24.91210938 C48.11789062 24.92467773 48.11789062 24.92467773 49.625 24.9375 C50.61757813 24.94201172 51.61015625 24.94652344 52.6328125 24.95117188 C55.0886016 24.96297855 57.54427104 24.979446 60 25 C60 28 60 28 57.8125 30.34765625 C56.4203125 31.66056641 56.4203125 31.66056641 55 33 C52.4320057 35.75658138 49.90384946 38.54457348 47.38671875 41.34765625 C46.01349466 42.87371052 44.62740818 44.38882676 43.20703125 45.87109375 C41.64522753 47.48355954 41.64522753 47.48355954 40 50 C40.2511887 54.74746641 42.79996541 58.30820424 45.3125 62.1875 C45.74675293 62.87223389 46.18100586 63.55696777 46.62841797 64.26245117 C49.13908403 68.19594617 51.71760729 72.08011661 54.33203125 75.9453125 C54.88012451 76.75718018 55.42821777 77.56904785 55.99291992 78.40551758 C57.06794974 79.99096544 58.14999118 81.57168504 59.23950195 83.1472168 C59.73023193 83.86820557 60.22096191 84.58919434 60.7265625 85.33203125 C61.16564941 85.96858643 61.60473633 86.6051416 62.05712891 87.26098633 C63 89 63 89 63 92 C59.37501666 92.02893932 55.75006287 92.04677792 52.125 92.0625 C50.57619141 92.07506836 50.57619141 92.07506836 48.99609375 92.08789062 C48.00996094 92.09111328 47.02382813 92.09433594 46.0078125 92.09765625 C45.09660645 92.10289307 44.18540039 92.10812988 43.24658203 92.11352539 C41 92 41 92 39 91 C38.07013573 89.44825199 37.20623362 87.85674208 36.375 86.25 C33.94557721 81.69632823 31.42105318 77.22724208 28.75 72.8125 C28.08484375 71.70519531 27.4196875 70.59789063 26.734375 69.45703125 C26.16203125 68.64621094 25.5896875 67.83539063 25 67 C22.93728208 66.80149367 22.93728208 66.80149367 21.40698242 68.1809082 C19.55789061 70.57160456 19.57506799 72.10264766 19.48828125 75.10546875 C19.45283203 76.08837891 19.41738281 77.07128906 19.38085938 78.08398438 C19.35830078 79.10814453 19.33574219 80.13230469 19.3125 81.1875 C19.27833984 82.22326172 19.24417969 83.25902344 19.20898438 84.32617188 C19.12648241 86.88373264 19.06156544 89.44184963 19 92 C12.73 92 6.46 92 0 92 C0 61.64 0 31.28 0 0 Z " fill="#090909" transform="translate(707,37)"/>
<path d="M0 0 C7.83528548 6.94491213 11.18309045 14.6379718 12.32421875 24.921875 C12.71563342 35.12565046 10.30908582 45.43328363 3.62109375 53.35546875 C-3.48572621 60.56503791 -11.51291545 63.1052912 -21.5625 63.375 C-31.06451702 63.10765134 -38.73930295 60.22150124 -46 54 C-52.59756983 46.88497371 -54.89829587 37.47158252 -55.375 27.9375 C-54.39011522 17.59620981 -51.88682578 8.45608243 -44.078125 1.21875 C-30.94846185 -9.16284412 -13.52165035 -10.25984873 0 0 Z M-31 13 C-35.69218818 18.96034715 -36.74995277 24.50047233 -36 32 C-34.82972715 37.23180803 -33.46562068 41.71645538 -29 45 C-24.60540125 47.56351593 -20.78108418 47.13696514 -16 46 C-12.09324097 44.57936035 -10.54900603 42.6493043 -8.6875 39.0625 C-6.04046731 32.46643886 -5.64282432 24.77517894 -8.1875 18.0625 C-10.74617882 13.73921509 -13.15878663 10.61373779 -18 9 C-23.71358396 8.46098264 -26.60591792 9.2894418 -31 13 Z " fill="#0B0C0C" transform="translate(382,67)"/>
<path d="M0 0 C8.18441631 6.82261659 12.1349839 14.76539747 13.34765625 25.26953125 C14.1554273 34.32687894 12.32380483 43.59939878 7.34765625 51.26953125 C4.91015625 54.01953125 4.91015625 54.01953125 2.34765625 56.26953125 C1.56390625 56.97078125 0.78015625 57.67203125 -0.02734375 58.39453125 C-8.09659632 64.15828308 -17.01131216 65.11709447 -26.65234375 64.26953125 C-36.54220801 61.88455743 -43.96274258 57.54831442 -49.36328125 48.85546875 C-54.58551075 38.37935988 -55.05596098 27.00698316 -51.68359375 15.9375 C-48.2329421 7.01024592 -41.9886004 0.10922522 -33.203125 -3.828125 C-22.07130314 -7.58533332 -9.96216536 -6.49961599 0 0 Z M-29.65234375 13.26953125 C-34.32386567 19.42879901 -35.3240431 25.76089209 -34.65234375 33.26953125 C-33.51353755 38.51138921 -32.1172041 42.9865457 -27.65234375 46.26953125 C-23.257745 48.83304718 -19.43342793 48.40649639 -14.65234375 47.26953125 C-10.74558472 45.8488916 -9.20134978 43.91883555 -7.33984375 40.33203125 C-4.5721212 33.42397578 -4.5493716 25.8384022 -6.83984375 18.76953125 C-9.26851979 14.07967407 -11.66585546 11.93169401 -16.65234375 10.26953125 C-21.87598589 9.87529411 -25.29663028 10.26892864 -29.65234375 13.26953125 Z " fill="#0A0A0A" transform="translate(618.65234375,65.73046875)"/>
<path d="M0 0 C7.36366186 5.89392895 11.72190735 13.61154165 13 23 C13.82286104 34.24576758 12.40768065 43.64133858 5.8125 52.95703125 C-0.27776598 59.82170605 -8.46302378 63.56763307 -17.48046875 64.1640625 C-27.15213665 64.46417067 -34.85553423 62.13455451 -43 57 C-43 56.34 -43 55.68 -43 55 C-43.66 55 -44.32 55 -45 55 C-52.60833553 45.83098026 -54.81517696 35.04336944 -53.75 23.2265625 C-52.20253855 14.24575942 -48.26116285 5.79821429 -40.73828125 0.3671875 C-27.7877351 -7.8434191 -13.07718034 -8.41237452 0 0 Z M-31.22265625 14.6171875 C-35.2568151 21.35524493 -36.24802853 28.62246529 -34.46875 36.2890625 C-32.71198186 41.38750917 -30.4853726 44.55019931 -25.75 47.3125 C-20.48930726 48.62767319 -16.42039448 47.69679729 -11.6875 45.375 C-7.29882816 41.49663884 -6.2287125 38.37465699 -5.68359375 32.71484375 C-5.45250407 25.74488074 -5.46894514 19.60049638 -10 14 C-13.22483167 11.06833485 -15.69940347 9.76768113 -20 9.5625 C-24.52693478 9.83895403 -28.36423683 10.83640271 -31.22265625 14.6171875 Z " fill="#0A0A0A" transform="translate(477,66)"/>
<path d="M0 0 C7.16003383 5.7956429 12.05593439 14.21377552 13.37890625 23.375 C14.35048576 35.24101205 12.39119054 46.0925187 4.57421875 55.3984375 C-3.4285886 62.60381209 -12.97573749 64.77681642 -23.42578125 64.6484375 C-32.44805831 63.87636 -39.61818652 60.08734172 -45.62109375 53.375 C-53.20513649 43.54669971 -53.76085182 32.34106641 -52.62109375 20.375 C-51.77147062 16.67339867 -50.53001608 13.64654124 -48.62109375 10.375 C-48.27046875 9.73433594 -47.91984375 9.09367187 -47.55859375 8.43359375 C-42.96708647 1.05210809 -35.32295858 -3.03730964 -27.078125 -5.15234375 C-17.66137403 -6.96383321 -8.19156904 -5.07852865 0 0 Z M-30.62109375 14.375 C-34.98583653 21.79506273 -35.32414801 29.83136651 -33.4140625 38.07421875 C-31.86911977 42.55683582 -29.36361798 45.29180926 -25.30859375 47.8125 C-20.03769408 48.91571156 -16.0271879 48.06478204 -11.30859375 45.75 C-6.91992191 41.87163884 -5.84980625 38.74965699 -5.3046875 33.08984375 C-5.07164925 26.06110934 -5.20879814 20.09743116 -9.62109375 14.375 C-12.78955488 11.39856682 -15.52681956 10.48021867 -19.87109375 10.0625 C-24.34636661 10.43543941 -27.23571016 11.41059675 -30.62109375 14.375 Z " fill="#090909" transform="translate(688.62109375,65.625)"/>
<path d="M0 0 C6.20158251 4.4297018 8.51984588 9.08278394 10.05078125 16.39453125 C10.14939453 17.31298828 10.14939453 17.31298828 10.25 18.25 C9.25 19.25 9.25 19.25 5.43359375 19.34765625 C3.85153318 19.34098089 2.26948841 19.32901875 0.6875 19.3125 C-0.11880859 19.30798828 -0.92511719 19.30347656 -1.75585938 19.29882812 C-3.75393756 19.28700518 -5.75197783 19.26906914 -7.75 19.25 C-8.183125 18.115625 -8.61625 16.98125 -9.0625 15.8125 C-9.619375 14.636875 -10.17625 13.46125 -10.75 12.25 C-14.27994613 11.07335129 -17.04455413 11.05149397 -20.75 11.25 C-21.74 11.91 -22.73 12.57 -23.75 13.25 C-24.00030977 15.83380177 -24.00030977 15.83380177 -23.75 18.25 C-18.62955302 20.44447728 -13.66025854 21.70277987 -8.1875 22.6875 C-0.97279541 24.04677935 3.73621719 25.34948137 8.6875 31.0625 C11.84218375 37.39929953 11.57457115 46.22745443 9.40234375 52.82421875 C5.85014145 59.14593471 0.20806905 62.19712797 -6.4375 64.5625 C-16.12930116 66.51986376 -26.00171912 66.09352721 -34.75 61.25 C-40.62140866 56.84887775 -43.86652558 52.31302908 -45.75 45.25 C-45.75 43.93 -45.75 42.61 -45.75 41.25 C-39.48 41.25 -33.21 41.25 -26.75 41.25 C-25.76 43.23 -24.77 45.21 -23.75 47.25 C-20.40054311 49.88171613 -16.86934522 49.47469156 -12.75 49.25 C-11.76 48.92 -10.77 48.59 -9.75 48.25 C-9.02743171 43.76866426 -9.02743171 43.76866426 -8.75 39.25 C-9.47703125 39.14042969 -10.2040625 39.03085938 -10.953125 38.91796875 C-14.22677684 38.40173904 -17.48805903 37.83566667 -20.75 37.25 C-21.801875 37.06695312 -22.85375 36.88390625 -23.9375 36.6953125 C-31.07033157 35.22143659 -36.00983708 32.90173271 -40.75 27.25 C-43.8734062 22.38567887 -43.20666959 16.81238537 -42.75 11.25 C-40.98584038 5.40622125 -36.72551097 1.5894955 -31.75 -1.75 C-21.24872208 -6.5447957 -9.77391941 -6.1007144 0 0 Z " fill="#0B0B0B" transform="translate(812.75,64.75)"/>
<path d="M0 0 C0.79792969 0.00386719 1.59585937 0.00773437 2.41796875 0.01171875 C3.21589844 0.00785156 4.01382812 0.00398438 4.8359375 0 C10.79136108 0.01011108 10.79136108 0.01011108 11.91796875 1.13671875 C12.01317781 3.96712547 12.04350506 6.77306868 12.03149414 9.60375977 C12.03164017 10.49148071 12.03178619 11.37920166 12.03193665 12.29382324 C12.03123718 15.24278159 12.02344323 18.19167762 12.015625 21.140625 C12.01376094 23.17943792 12.01233698 25.21825129 12.01133728 27.25706482 C12.00751116 32.63456449 11.99768007 38.01203733 11.9866333 43.38952637 C11.9764212 48.87231076 11.97184009 54.35509947 11.96679688 59.83789062 C11.95605789 70.60418037 11.93846033 81.37044314 11.91796875 92.13671875 C5.64796875 92.13671875 -0.62203125 92.13671875 -7.08203125 92.13671875 C-7.10458103 80.28906362 -7.12294561 68.44142264 -7.13384342 56.59375095 C-7.13907256 51.09301013 -7.14617076 45.5922847 -7.1574707 40.09155273 C-7.1682985 34.78775315 -7.17430785 29.4839684 -7.17690849 24.18015862 C-7.17876294 22.15186263 -7.18238392 20.12356749 -7.18776131 18.09527779 C-7.19497031 15.26475361 -7.19602225 12.43429157 -7.19555664 9.60375977 C-7.19915192 8.75643784 -7.20274719 7.90911591 -7.20645142 7.03611755 C-7.19401752 0.09800103 -6.95536603 0.01180877 0 0 Z " fill="#070807" transform="translate(406.08203125,36.86328125)"/>
<path d="M0 0 C0.33 0 0.66 0 1 0 C1 39.93 1 79.86 1 121 C1.66 121 2.32 121 3 121 C2.34 123.31 1.68 125.62 1 128 C1.66 128.33 2.32 128.66 3 129 C3 128.34 3 127.68 3 127 C3.721875 127.0825 4.44375 127.165 5.1875 127.25 C8.90424677 126.91962251 10.15520393 125.38168973 13 123 C20 119 20 119 23 119 C23 118.34 23 117.68 23 117 C45.02732108 108.57495164 45.02732108 108.57495164 54 111 C54 111.33 54 111.66 54 112 C53.37996094 112.08636719 52.75992188 112.17273438 52.12109375 112.26171875 C34.85607527 115.00100116 17.06948185 121.76201768 4.375 134.125 C-0.37771704 138.66684563 -0.37771704 138.66684563 -4 139.125 C-9.84813435 138.47787038 -14.12601772 133.00099809 -18 129 C-17.39671875 128.86722656 -16.7934375 128.73445312 -16.171875 128.59765625 C-13.45322337 127.84953809 -11.36532715 126.51118124 -9 125 C-9 125.66 -9 126.32 -9 127 C-7.02 127 -5.04 127 -3 127 C-3 126.34 -3 125.68 -3 125 C-2.34 125 -1.68 125 -1 125 C-1.00092179 124.36185899 -1.00184359 123.72371798 -1.00279331 123.06623936 C-1.02484861 107.56050671 -1.04141159 92.0547795 -1.05181217 76.54903507 C-1.05697511 69.05066936 -1.06401776 61.55231409 -1.07543945 54.05395508 C-1.08538637 47.52069496 -1.09185344 40.98744241 -1.09408849 34.45417494 C-1.09539559 30.99278193 -1.09848136 27.53141058 -1.10573006 24.07002449 C-1.11374407 20.21212473 -1.11399113 16.35424643 -1.11352539 12.49633789 C-1.11712067 11.34044159 -1.12071594 10.18454529 -1.12442017 8.99362183 C-1.1230455 7.94889206 -1.12167084 6.90416229 -1.12025452 5.82777405 C-1.12117631 4.9142772 -1.1220981 4.00078035 -1.12304783 3.05960178 C-1 1 -1 1 0 0 Z " fill="#3E87D3" transform="translate(127,38)"/>
<path d="M0 0 C0 0.33 0 0.66 0 1 C-0.75925781 1.09796875 -1.51851562 1.1959375 -2.30078125 1.296875 C-3.29464844 1.44640625 -4.28851563 1.5959375 -5.3125 1.75 C-6.29863281 1.88921875 -7.28476562 2.0284375 -8.30078125 2.171875 C-12.19323817 3.36608754 -13.10847261 5.45967335 -15.06389332 8.83813 C-16.13889404 11.32076563 -16.24901386 13.06322188 -16.24723816 15.76179504 C-16.25352989 17.19368919 -16.25352989 17.19368919 -16.25994873 18.6545105 C-16.25432922 19.69511627 -16.24870972 20.73572205 -16.24291992 21.80786133 C-16.24481827 22.90910843 -16.24671661 24.01035553 -16.24867249 25.14497375 C-16.25238139 28.79073168 -16.24167201 32.43629097 -16.23046875 36.08203125 C-16.22927662 38.61545285 -16.22882386 41.14887489 -16.2290802 43.68229675 C-16.22751499 48.99599173 -16.21946741 54.30961783 -16.20581055 59.62329102 C-16.19010969 65.75464374 -16.18481166 71.88593381 -16.1855461 78.0173052 C-16.18615813 83.92583264 -16.18092648 89.83434213 -16.17275429 95.74286461 C-16.16957507 98.25184698 -16.16760196 100.76083117 -16.16686058 103.26981544 C-16.16468764 106.78122689 -16.15592194 110.29256043 -16.14526367 113.80395508 C-16.14571686 114.83848816 -16.14617004 115.87302124 -16.14663696 116.93890381 C-16.1239268 122.06697653 -15.88597101 126.94636057 -15 132 C-15.99 131.67 -16.98 131.34 -18 131 C-18.96945299 128.09164102 -19.12995445 126.23267286 -19.14044189 123.206604 C-19.14615204 122.21972595 -19.15186218 121.2328479 -19.15774536 120.21606445 C-19.15886322 119.13446045 -19.15998108 118.05285645 -19.16113281 116.93847656 C-19.16609772 115.79836121 -19.17106262 114.65824585 -19.17617798 113.48358154 C-19.19081207 109.70258994 -19.197604 105.9216403 -19.203125 102.140625 C-19.20887578 99.51609292 -19.21463352 96.89156086 -19.22039795 94.26702881 C-19.22996923 89.46338892 -19.23586593 84.65975811 -19.2388947 79.85610986 C-19.24337174 72.79488232 -19.26090369 65.73384872 -19.2898953 58.67268014 C-19.31415733 52.55004272 -19.32184104 46.42748507 -19.32357025 40.30480194 C-19.32659703 37.70370173 -19.33462637 35.10260234 -19.34775543 32.50153351 C-19.3648202 28.86057375 -19.36293417 25.22008515 -19.35644531 21.57910156 C-19.3656601 20.50559448 -19.37487488 19.4320874 -19.3843689 18.3260498 C-19.35149792 12.43459638 -18.87006331 8.18849825 -16 3 C-11.59734688 -1.26507021 -5.73119503 -0.27100222 0 0 Z " fill="#3680CD" transform="translate(43,6)"/>
<path d="M0 0 C0.99 0.33 1.98 0.66 3 1 C3.99367384 3.98102152 4.12342524 5.91983775 4.12025452 9.03031921 C4.12162918 10.06938416 4.12300385 11.1084491 4.12442017 12.17900085 C4.12082489 13.31835587 4.11722961 14.45771088 4.11352539 15.6315918 C4.11367142 16.83171906 4.11381744 18.03184631 4.1139679 19.26834106 C4.1133902 22.55940532 4.10837154 25.850407 4.10139394 29.14146018 C4.0951468 32.58078054 4.09455552 36.02010172 4.09336853 39.45942688 C4.09025924 45.97233141 4.08205125 52.48521917 4.07201904 58.99811631 C4.06084545 66.4127946 4.05534431 73.82747368 4.05032361 81.24215829 C4.03986831 96.49478191 4.02227662 111.74738879 4 127 C2.515 127.495 2.515 127.495 1 128 C1.00092179 127.39500199 1.00184359 126.79000399 1.00279331 126.16667271 C1.02491755 111.41754891 1.04144515 96.66842609 1.05181217 81.91928959 C1.05695937 74.78660039 1.06397192 67.6539223 1.07543945 60.52124023 C1.08543457 54.30139945 1.09186489 48.08156671 1.09408849 41.86171812 C1.09538742 38.57109574 1.09895303 35.28050163 1.10573006 31.98988533 C1.11300916 28.30842866 1.11398804 24.62701937 1.11352539 20.94555664 C1.11712067 19.86517624 1.12071594 18.78479584 1.12442017 17.67167664 C1.11631793 11.69721236 0.77807579 5.92494248 0 0 Z " fill="#2D87E3" transform="translate(217,10)"/>
<path d="M0 0 C0.33 0.99 0.66 1.98 1 3 C1.66 3 2.32 3 3 3 C3.07001608 18.35070928 3.1229518 33.7014112 3.15543652 49.05224419 C3.17091925 56.1795777 3.19203543 63.30681211 3.22631836 70.43408203 C3.25936206 77.30698719 3.27683283 84.17978914 3.28463173 91.05276871 C3.29019247 93.680336 3.30105053 96.30789738 3.31719017 98.93542099 C3.33883691 102.60404595 3.34197224 106.27223986 3.34057617 109.94091797 C3.35675491 111.58521286 3.35675491 111.58521286 3.3732605 113.26272583 C3.36913651 114.25834534 3.36501251 115.25396484 3.36076355 116.27975464 C3.36352893 117.14808363 3.36629431 118.01641262 3.36914349 118.91105461 C3.18641746 119.94508258 3.18641746 119.94508258 3 121 C1.515 121.99 1.515 121.99 0 123 C0 82.41 0 41.82 0 0 Z " fill="#3C8BD8" transform="translate(118,36)"/>
<path d="M0 0 C0.66 0 1.32 0 2 0 C2 29.37 2 58.74 2 89 C-3.94 89 -9.88 89 -16 89 C-15.67 87.68 -15.34 86.36 -15 85 C-10.05 85.33 -5.1 85.66 0 86 C0 57.62 0 29.24 0 0 Z " fill="#181818" transform="translate(416,40)"/>
<path d="M0 0 C0.33 0 0.66 0 1 0 C1.04667809 15.08996338 1.08196824 30.17992117 1.10362434 45.26994133 C1.11394599 52.27617681 1.12802321 59.28236749 1.15087891 66.28857422 C1.17290853 73.04476669 1.18455535 79.80090289 1.18975449 86.55713272 C1.19346155 89.14003357 1.20070005 91.72293174 1.21146011 94.30581284 C1.22589163 97.91210275 1.22798144 101.51819777 1.22705078 105.12451172 C1.23424133 106.20200684 1.24143188 107.27950195 1.24884033 108.38964844 C1.246091 109.36843964 1.24334167 110.34723083 1.24050903 111.35568237 C1.24235262 112.20926268 1.24419621 113.06284298 1.24609566 113.94228935 C1 116 1 116 -1 118 C-1.99 117.67 -2.98 117.34 -4 117 C-3.34 117 -2.68 117 -2 117 C-1.82557921 107.20845992 -1.66028194 97.41677999 -1.5 87.625 C-1.48797546 86.89548504 -1.47595093 86.16597008 -1.46356201 85.4143486 C-1.08705321 62.49401911 -0.90042678 39.58471138 -1.03710938 16.66064453 C-1.04133911 15.67387222 -1.04556885 14.68709991 -1.04992676 13.67042542 C-1.05806417 11.84352621 -1.07040059 10.01663885 -1.08776855 8.18980408 C-1.11229943 2.22459886 -1.11229943 2.22459886 0 0 Z " fill="#7FB7EC" transform="translate(126,44)"/>
<path d="M0 0 C0 0.33 0 0.66 0 1 C-0.62003906 1.08636719 -1.24007812 1.17273438 -1.87890625 1.26171875 C-14.83575629 3.31746352 -26.51009691 7.77362793 -38 14 C-37.69140625 12.078125 -37.69140625 12.078125 -37 10 C-33.9375 8.75 -33.9375 8.75 -31 8 C-31 7.34 -31 6.68 -31 6 C-8.97267892 -2.42504836 -8.97267892 -2.42504836 0 0 Z " fill="#589DE3" transform="translate(181,149)"/>
<path d="M0 0 C-2.02594196 2.02594196 -5.95770167 1.64325846 -8.75 1.9375 C-16.20481356 2.76361876 -23.59659619 3.78970442 -31 5 C-31.33 4.34 -31.66 3.68 -32 3 C-31.01 3 -30.02 3 -29 3 C-29 2.34 -29 1.68 -29 1 C-25.16772795 0.09160959 -21.68194884 -0.07597969 -17.75 0 C-13.71012862 0.04126997 -9.82015853 -0.04936382 -5.8125 -0.5625 C-2 -1 -2 -1 0 0 Z " fill="#5DA2E5" transform="translate(213,144)"/>
<path d="M0 0 C0 0.99 0 1.98 0 3 C-1.32 3 -2.64 3 -4 3 C-4 3.66 -4 4.32 -4 5 C-5.051875 5.12375 -6.10375 5.2475 -7.1875 5.375 C-10.45958771 5.91140782 -13.00536076 6.63880035 -16 8 C-16 8.99 -16 9.98 -16 11 C-17.98 11 -19.96 11 -22 11 C-18.06116627 6.55292965 -13.57191273 3.19120163 -8 1 C-7.01 1.33 -6.02 1.66 -5 2 C-2.3430809 1.12085312 -2.3430809 1.12085312 0 0 Z " fill="#5A9DE5" transform="translate(158,16)"/>
<path d="M0 0 C1.65 0.66 3.3 1.32 5 2 C5 2.99 5 3.98 5 5 C-2.26 5 -9.52 5 -17 5 C-16.67 4.34 -16.34 3.68 -16 3 C-12.77945569 2.66891601 -9.60419743 2.53444286 -6.37109375 2.43359375 C-4.57666601 2.3540719 -2.78677189 2.18368683 -1 2 C-0.67 1.34 -0.34 0.68 0 0 Z " fill="#8A8A8A" transform="translate(765,124)"/>
<path d="M0 0 C0.66 0 1.32 0 2 0 C2.02721176 1.89575251 2.04649136 3.79161979 2.0625 5.6875 C2.07410156 6.74324219 2.08570313 7.79898438 2.09765625 8.88671875 C2.00865425 11.72410262 1.64939838 14.2438919 1 17 C0.01 17 -0.98 17 -2 17 C-2.33 15.68 -2.66 14.36 -3 13 C-2.34 13 -1.68 13 -1 13 C-1.01160156 12.22914062 -1.02320313 11.45828125 -1.03515625 10.6640625 C-1.04417969 9.66117188 -1.05320312 8.65828125 -1.0625 7.625 C-1.07410156 6.62726563 -1.08570313 5.62953125 -1.09765625 4.6015625 C-1 2 -1 2 0 0 Z " fill="#060606" transform="translate(392,89)"/>
<path d="M0 0 C0 0.33 0 0.66 0 1 C-18.82004556 4.25968109 -18.82004556 4.25968109 -28 5 C-26.68 4.67 -25.36 4.34 -24 4 C-24 3.34 -24 2.68 -24 2 C-15.95075394 -0.25943749 -8.29683005 -0.19676277 0 0 Z " fill="#3C87DD" transform="translate(196,8)"/>
<path d="M0 0 C2.0625 0.4375 2.0625 0.4375 4 1 C0.23202301 5.70997124 0.23202301 5.70997124 -3.0078125 6.47265625 C-5.125 6.5625 -5.125 6.5625 -9 6 C-11 4 -11 4 -12 2 C-8.62537285 2.54723683 -6.91765 3.0549 -4 5 C-4.66 3.68 -5.32 2.36 -6 1 C-4.7934375 1.0309375 -4.7934375 1.0309375 -3.5625 1.0625 C-1.06645115 1.29633621 -1.06645115 1.29633621 0 0 Z " fill="#62A3E7" transform="translate(128,170)"/>
<path d="M0 0 C-1.186313 3.55893899 -2.21046771 4.17667665 -5.25 6.25 C-6.01828125 6.79140625 -6.7865625 7.3328125 -7.578125 7.890625 C-10.51890951 9.23769404 -11.95897174 8.92740578 -15 8 C-15 7.34 -15 6.68 -15 6 C-14.34 6 -13.68 6 -13 6 C-13 5.34 -13 4.68 -13 4 C-11.9171875 4.12375 -11.9171875 4.12375 -10.8125 4.25 C-6.13179575 3.8339374 -4.70476829 0 0 0 Z " fill="#4E97E3" transform="translate(143,161)"/>
<path d="M0 0 C7.625 1.75 7.625 1.75 11 4 C11 4.66 11 5.32 11 6 C13.31 6 15.62 6 18 6 C17.34 6.66 16.68 7.32 16 8 C10.89037797 7.86012307 5.54973632 7.1531338 1.8125 3.4375 C0 1 0 1 0 0 Z " fill="#5D9FE3" transform="translate(25,137)"/>
<path d="M0 0 C2.875 -0.125 2.875 -0.125 6 0 C6.66 0.66 7.32 1.32 8 2 C6.35 3.65 4.7 5.3 3 7 C2.67 6.34 2.34 5.68 2 5 C2.66 5 3.32 5 4 5 C4 4.34 4 3.68 4 3 C3.34 2.67 2.68 2.34 2 2 C1.67 2.99 1.34 3.98 1 5 C-0.65 5 -2.3 5 -4 5 C-4 4.34 -4 3.68 -4 3 C-2.68 2.67 -1.36 2.34 0 2 C0 1.34 0 0.68 0 0 Z " fill="#5AA3F3" transform="translate(212,137)"/>
<path d="M0 0 C8.57142857 0.85714286 8.57142857 0.85714286 12 3 C12 3.66 12 4.32 12 5 C13.32 5.66 14.64 6.32 16 7 C12.41610915 7 10.17687445 6.00144405 6.875 4.625 C5.79992187 4.18414062 4.72484375 3.74328125 3.6171875 3.2890625 C1 2 1 2 0 0 Z " fill="#5D9FE2" transform="translate(82,152)"/>
<path d="M0 0 C0.99 0.66 1.98 1.32 3 2 C2.62671065 7.35048061 1.0042343 9.50912907 -3 13 C-3.33 11.68 -3.66 10.36 -4 9 C-3.34 9 -2.68 9 -2 9 C-1.34 6.03 -0.68 3.06 0 0 Z " fill="#282828" transform="translate(305,102)"/>
<path d="M0 0 C1.4370809 -0.05422947 2.87475462 -0.09289723 4.3125 -0.125 C5.11300781 -0.14820313 5.91351563 -0.17140625 6.73828125 -0.1953125 C9 0 9 0 12 2 C11 3 11 3 8.27734375 3.09765625 C6.62412109 3.08025391 6.62412109 3.08025391 4.9375 3.0625 C3.83277344 3.05347656 2.72804688 3.04445312 1.58984375 3.03515625 C0.30787109 3.01775391 0.30787109 3.01775391 -1 3 C-0.67 2.01 -0.34 1.02 0 0 Z " fill="#111111" transform="translate(452,60)"/>
<path d="M0 0 C5.46695158 3.46941158 8.15009514 6.18619408 11 12 C10.01 12.495 10.01 12.495 9 13 C9 12.01 9 11.02 9 10 C8.360625 9.731875 7.72125 9.46375 7.0625 9.1875 C5 8 5 8 4 5 C1.99983534 3.79117904 1.99983534 3.79117904 0 3 C0 2.01 0 1.02 0 0 Z " fill="#579BE1" transform="translate(110,26)"/>
<path d="M0 0 C1.4370809 -0.05422947 2.87475462 -0.09289723 4.3125 -0.125 C5.11300781 -0.14820313 5.91351562 -0.17140625 6.73828125 -0.1953125 C9 0 9 0 12 2 C11 3 11 3 8.71484375 3.09765625 C7.34005859 3.08025391 7.34005859 3.08025391 5.9375 3.0625 C5.01839844 3.05347656 4.09929688 3.04445312 3.15234375 3.03515625 C2.44207031 3.02355469 1.73179687 3.01195312 1 3 C0.67 2.01 0.34 1.02 0 0 Z " fill="#121313" transform="translate(664,60)"/>
<path d="M0 0 C1.258125 -0.020625 2.51625 -0.04125 3.8125 -0.0625 C4.52019531 -0.07410156 5.22789063 -0.08570313 5.95703125 -0.09765625 C8 0 8 0 11 1 C11 1.66 11 2.32 11 3 C13.31 3.66 15.62 4.32 18 5 C13.9255567 6.35814777 11.18531884 4.94745762 7.3125 3.5625 C6.61060547 3.31951172 5.90871094 3.07652344 5.18554688 2.82617188 C3.45421468 2.2255056 1.72671863 1.61380281 0 1 C0 0.67 0 0.34 0 0 Z " fill="#3F8BDC" transform="translate(74,12)"/>
<path d="M0 0 C-3.96 1.98 -7.92 3.96 -12 6 C-11 2 -11 2 -9.2578125 0.91796875 C-8.55398437 0.67691406 -7.85015625 0.43585938 -7.125 0.1875 C-6.42632812 -0.06644531 -5.72765625 -0.32039062 -5.0078125 -0.58203125 C-3 -1 -3 -1 0 0 Z " fill="#63A3E3" transform="translate(155,157)"/>
<path d="M0 0 C0.33 0 0.66 0 1 0 C1 3.63 1 7.26 1 11 C0.01 11.495 0.01 11.495 -1 12 C-2.60725635 8.78548731 -2.05748185 5.56387464 -2 2 C-1.34 2 -0.68 2 0 2 C0 1.34 0 0.68 0 0 Z " fill="#141414" transform="translate(329,89)"/>
<path d="M0 0 C3.63 0 7.26 0 11 0 C11.33 0.99 11.66 1.98 12 3 C8.04 3 4.08 3 0 3 C0 2.01 0 1.02 0 0 Z " fill="#050505" transform="translate(790,127)"/>
<path d="M0 0 C0.99 0.33 1.98 0.66 3 1 C4.25 8.5 4.25 8.5 2 13 C1.34 8.71 0.68 4.42 0 0 Z " fill="#4192E3" transform="translate(217,10)"/>
<path d="M0 0 C-1.65 0.33 -3.3 0.66 -5 1 C-5 1.66 -5 2.32 -5 3 C-8.3 3 -11.6 3 -15 3 C-12.50497077 0.50497077 -10.94071581 0.41462527 -7.5 -0.1875 C-6.5203125 -0.36667969 -5.540625 -0.54585937 -4.53125 -0.73046875 C-2 -1 -2 -1 0 0 Z " fill="#4899F7" transform="translate(191,10)"/>
<path d="M0 0 C0.99 0.33 1.98 0.66 3 1 C0.03 3.97 -2.94 6.94 -6 10 C-6.33 9.01 -6.66 8.02 -7 7 C-4.69 4.69 -2.38 2.38 0 0 Z " fill="#3186DD" transform="translate(135,27)"/>
<path d="M0 0 C6.1105424 -0.11269443 11.95170514 0.10395632 18 1 C18 1.33 18 1.66 18 2 C12.06 2.495 12.06 2.495 6 3 C6 2.67 6 2.34 6 2 C3.03 1.505 3.03 1.505 0 1 C0 0.67 0 0.34 0 0 Z " fill="#3984D4" transform="translate(36,142)"/>
<path d="M0 0 C3.63 0 7.26 0 11 0 C11 0.99 11 1.98 11 3 C5.71910976 3.30466674 4.422832 3.317124 0 0 Z " fill="#030303" transform="translate(355,127)"/>
<path d="M0 0 C3.63 0 7.26 0 11 0 C10.67 0.99 10.34 1.98 10 3 C7.03 3 4.06 3 1 3 C0.67 2.01 0.34 1.02 0 0 Z " fill="#040404" transform="translate(662,127)"/>
<path d="M0 0 C-0.99 1.485 -0.99 1.485 -2 3 C-4.33154122 3.09143299 -6.6679198 3.07646165 -9 3 C-11.33824592 3.29692012 -13.67377689 3.62020847 -16 4 C-12.11376605 0.11376605 -5.32712984 -0.3436858 0 0 Z " fill="#3886D6" transform="translate(184,146)"/>
<path d="M0 0 C0 0.66 0 1.32 0 2 C0.99 2 1.98 2 3 2 C3 2.66 3 3.32 3 4 C1.37419034 3.88601335 -0.25067157 3.75844341 -1.875 3.625 C-2.77992187 3.55539063 -3.68484375 3.48578125 -4.6171875 3.4140625 C-7 3 -7 3 -9 1 C-2.25 0 -2.25 0 0 0 Z " fill="#6AAAEB" transform="translate(56,143)"/>
<path d="M0 0 C0.33 1.32 0.66 2.64 1 4 C-0.8125 5.5625 -0.8125 5.5625 -3 7 C-3.99 6.67 -4.98 6.34 -6 6 C-5 3 -5 3 -3 1.875 C-2.34 1.58625 -1.68 1.2975 -1 1 C-0.67 0.67 -0.34 0.34 0 0 Z " fill="#2F2F2F" transform="translate(693,116)"/>
<path d="M0 0 C-1 3 -1 3 -3.375 4.75 C-6 6 -6 6 -9 5 C-3.375 0 -3.375 0 0 0 Z " fill="#3D8DDB" transform="translate(143,161)"/>
<path d="M0 0 C3.67420866 0.30618405 4.78135513 0.75771784 7.3125 3.5625 C8.1478125 4.7690625 8.1478125 4.7690625 9 6 C4.75177626 5.52797514 2.80010291 3.03344482 0 0 Z " fill="#4593DE" transform="translate(109,166)"/>
<path d="M0 0 C3.73487777 0.4979837 5.81237635 0.87491756 9 3 C5.18510326 4.46726798 2.70988378 3.43336419 -1 2 C-0.67 1.34 -0.34 0.68 0 0 Z " fill="#448FDA" transform="translate(76,149)"/>
<path d="M0 0 C1.7074998 1.28062485 3.37373596 2.61767557 5 4 C5 4.66 5 5.32 5 6 C3.0625 6.5625 3.0625 6.5625 1 7 C0 6 0 6 -0.0625 2.9375 C-0.041875 1.968125 -0.02125 0.99875 0 0 Z " fill="#65A9EA" transform="translate(119,155)"/>
<path d="M0 0 C-0.33 1.32 -0.66 2.64 -1 4 C-1.66 4 -2.32 4 -3 4 C-3 3.01 -3 2.02 -3 1 C-4.65 1.33 -6.3 1.66 -8 2 C-6.14210462 -1.71579076 -3.44525918 -1.06921837 0 0 Z " fill="#4894E7" transform="translate(99,19)"/>
<path d="M0 0 C0.66 0.33 1.32 0.66 2 1 C0.75 3 0.75 3 -1 5 C-2.32 5 -3.64 5 -5 5 C-5 4.01 -5 3.02 -5 2 C-2.625 0.9375 -2.625 0.9375 0 0 Z " fill="#2E2E2E" transform="translate(536,110)"/>
<path d="M0 0 C1.485 0.99 1.485 0.99 3 2 C2.67 3.65 2.34 5.3 2 7 C1.01 6.67 0.02 6.34 -1 6 C-1.042721 4.33388095 -1.04063832 2.66617115 -1 1 C-0.67 0.67 -0.34 0.34 0 0 Z " fill="#3B8DE5" transform="translate(107,24)"/>
<path d="M0 0 C2.475 0.99 2.475 0.99 5 2 C5 2.99 5 3.98 5 5 C4.01 5 3.02 5 2 5 C2 4.34 2 3.68 2 3 C1.01 2.67 0.02 2.34 -1 2 C-0.67 1.34 -0.34 0.68 0 0 Z " fill="#1F1F1F" transform="translate(765,124)"/>
<path d="M0 0 C-2.93828597 2.50298434 -5.17902761 3.46930939 -9 4 C-8.67 3.01 -8.34 2.02 -8 1 C-5.07175348 0.02391783 -3.04386724 -0.08226668 0 0 Z " fill="#408AD9" transform="translate(160,15)"/>
</svg>
