<?xml version="1.0" encoding="UTF-8"?>
<!DOCTYPE svg PUBLIC "-//W3C//DTD SVG 1.1//EN" "http://www.w3.org/Graphics/SVG/1.1/DTD/svg11.dtd">
<svg xmlns="http://www.w3.org/2000/svg" version="1.1" width="1024px" height="1024px" style="shape-rendering:geometricPrecision; text-rendering:geometricPrecision; image-rendering:optimizeQuality; fill-rule:evenodd; clip-rule:evenodd" xmlns:xlink="http://www.w3.org/1999/xlink">
<g><path style="opacity:1" fill="#fefefe" d="M -0.5,-0.5 C 340.833,-0.5 682.167,-0.5 1023.5,-0.5C 1023.5,340.833 1023.5,682.167 1023.5,1023.5C 682.167,1023.5 340.833,1023.5 -0.5,1023.5C -0.5,682.167 -0.5,340.833 -0.5,-0.5 Z"/></g>
<g><path style="opacity:1" fill="#4198f6" d="M 521.5,656.5 C 522.327,651.015 522.827,645.348 523,639.5C 523.817,555.492 523.65,471.492 522.5,387.5C 523.026,379.805 523.692,372.138 524.5,364.5C 533.217,348.948 545.217,336.448 560.5,327C 580.606,314.961 601.939,305.628 624.5,299C 658.153,288.869 692.486,282.203 727.5,279C 736.895,278.114 746.228,278.447 755.5,280C 765.466,283.968 771.966,291.135 775,301.5C 775.667,406.833 775.667,512.167 775,617.5C 772.409,628.422 765.909,635.922 755.5,640C 701.709,642.365 650.042,654.032 600.5,675C 569.362,688.566 542.028,707.566 518.5,732C 514.782,734.298 510.782,734.965 506.5,734C 471.871,699.098 430.871,674.431 383.5,660C 346.927,649.152 309.594,642.819 271.5,641C 256.995,636.494 249.162,626.66 248,611.5C 247.333,508.5 247.333,405.5 248,302.5C 251.167,290 259,282.167 271.5,279C 330.1,280.4 386.434,292.4 440.5,315C 460.494,323.668 477.661,336.168 492,352.5C 497.756,358.682 500.756,366.015 501,374.5C 501.63,476.177 501.63,577.844 501,679.5C 506.666,686.643 513,687.31 520,681.5C 521.438,673.277 521.938,664.943 521.5,656.5 Z"/></g>
<g><path style="opacity:1" fill="#308ff7" d="M 524.5,364.5 C 523.692,372.138 523.026,379.805 522.5,387.5C 523.65,471.492 523.817,555.492 523,639.5C 522.827,645.348 522.327,651.015 521.5,656.5C 521.333,560.499 521.5,464.499 522,368.5C 522.608,366.934 523.442,365.6 524.5,364.5 Z"/></g>
</svg>
